<mxfile host="app.diagrams.net" agent="Mozilla/5.0 (Macintosh; Intel Mac OS X 10.15; rv:139.0) Gecko/20100101 Firefox/139.0" version="27.1.5">
  <diagram id="C5RBs43oDa-KdzZeNtuy" name="Page-1">
    <mxGraphModel dx="2170" dy="3144" grid="0" gridSize="10" guides="1" tooltips="1" connect="1" arrows="1" fold="1" page="1" pageScale="1" pageWidth="827" pageHeight="1169" math="0" shadow="0">
      <root>
        <mxCell id="WIyWlLk6GJQsqaUBKTNV-0" />
        <object label="Acteurs" id="ZmzfmCcFbRjJiwDWbrTt-176">
          <mxCell style="locked=1;" parent="WIyWlLk6GJQsqaUBKTNV-0" />
        </object>
        <mxCell id="ZmzfmCcFbRjJiwDWbrTt-177" value="" style="group;movable=1;resizable=1;rotatable=1;deletable=1;editable=1;locked=0;connectable=1;" parent="ZmzfmCcFbRjJiwDWbrTt-176" vertex="1" connectable="0">
          <mxGeometry x="-200" y="-1200" width="5630" height="1960" as="geometry" />
        </mxCell>
        <mxCell id="ZmzfmCcFbRjJiwDWbrTt-178" value="" style="group" parent="ZmzfmCcFbRjJiwDWbrTt-177" vertex="1" connectable="0">
          <mxGeometry y="1680" width="5630" height="280" as="geometry" />
        </mxCell>
        <mxCell id="ZmzfmCcFbRjJiwDWbrTt-179" value="" style="whiteSpace=wrap;html=1;shadow=0;strokeColor=none;fillColor=#f5f5f5;align=center;verticalAlign=middle;fontFamily=Helvetica;fontSize=12;fontColor=#333333;" parent="ZmzfmCcFbRjJiwDWbrTt-178" vertex="1">
          <mxGeometry width="5630" height="280" as="geometry" />
        </mxCell>
        <mxCell id="ZmzfmCcFbRjJiwDWbrTt-189" value="Ingénieur sûreté" style="shape=umlActor;verticalLabelPosition=bottom;verticalAlign=top;html=1;outlineConnect=0;" parent="ZmzfmCcFbRjJiwDWbrTt-178" vertex="1">
          <mxGeometry x="59.50406504065041" y="110" width="34.329268292682926" height="60" as="geometry" />
        </mxCell>
        <mxCell id="ZmzfmCcFbRjJiwDWbrTt-181" value="" style="group" parent="ZmzfmCcFbRjJiwDWbrTt-177" vertex="1" connectable="0">
          <mxGeometry y="1400" width="5630" height="280" as="geometry" />
        </mxCell>
        <mxCell id="ZmzfmCcFbRjJiwDWbrTt-182" value="" style="whiteSpace=wrap;html=1;shadow=0;strokeColor=none;fillColor=#dae8fc;" parent="ZmzfmCcFbRjJiwDWbrTt-181" vertex="1">
          <mxGeometry width="5630" height="280" as="geometry" />
        </mxCell>
        <mxCell id="ZmzfmCcFbRjJiwDWbrTt-180" value="&lt;div&gt;Chef de quart&lt;/div&gt;" style="shape=umlActor;verticalLabelPosition=bottom;verticalAlign=top;html=1;outlineConnect=0;" parent="ZmzfmCcFbRjJiwDWbrTt-181" vertex="1">
          <mxGeometry x="66.369918699187" y="107" width="34.329268292682926" height="60" as="geometry" />
        </mxCell>
        <mxCell id="ZmzfmCcFbRjJiwDWbrTt-184" value="" style="group" parent="ZmzfmCcFbRjJiwDWbrTt-177" vertex="1" connectable="0">
          <mxGeometry y="1120" width="5630" height="280" as="geometry" />
        </mxCell>
        <mxCell id="ZmzfmCcFbRjJiwDWbrTt-185" value="" style="whiteSpace=wrap;html=1;shadow=0;strokeColor=none;fillColor=#f5f5f5;align=center;verticalAlign=middle;fontFamily=Helvetica;fontSize=12;fontColor=#333333;" parent="ZmzfmCcFbRjJiwDWbrTt-184" vertex="1">
          <mxGeometry width="5630" height="280" as="geometry" />
        </mxCell>
        <mxCell id="ZmzfmCcFbRjJiwDWbrTt-187" value="" style="group" parent="ZmzfmCcFbRjJiwDWbrTt-177" vertex="1" connectable="0">
          <mxGeometry y="840" width="5630" height="452" as="geometry" />
        </mxCell>
        <mxCell id="ZmzfmCcFbRjJiwDWbrTt-188" value="" style="whiteSpace=wrap;html=1;shadow=0;strokeColor=none;fillColor=#dae8fc;" parent="ZmzfmCcFbRjJiwDWbrTt-187" vertex="1">
          <mxGeometry width="5630" height="280" as="geometry" />
        </mxCell>
        <mxCell id="ZmzfmCcFbRjJiwDWbrTt-183" value="Intervenant" style="shape=umlActor;verticalLabelPosition=bottom;verticalAlign=top;html=1;outlineConnect=0;" parent="ZmzfmCcFbRjJiwDWbrTt-187" vertex="1">
          <mxGeometry x="68.65853658536585" y="392" width="34.329268292682926" height="60" as="geometry" />
        </mxCell>
        <mxCell id="ZmzfmCcFbRjJiwDWbrTt-186" value="Expert" style="shape=umlActor;verticalLabelPosition=bottom;verticalAlign=top;html=1;outlineConnect=0;" parent="ZmzfmCcFbRjJiwDWbrTt-187" vertex="1">
          <mxGeometry x="68.65853658536585" y="112" width="34.329268292682926" height="60" as="geometry" />
        </mxCell>
        <mxCell id="ZmzfmCcFbRjJiwDWbrTt-190" value="" style="group" parent="ZmzfmCcFbRjJiwDWbrTt-177" vertex="1" connectable="0">
          <mxGeometry y="560" width="5630" height="280" as="geometry" />
        </mxCell>
        <mxCell id="ZmzfmCcFbRjJiwDWbrTt-191" value="" style="whiteSpace=wrap;html=1;shadow=0;strokeColor=none;fillColor=#f5f5f5;align=center;verticalAlign=middle;fontFamily=Helvetica;fontSize=12;fontColor=#333333;" parent="ZmzfmCcFbRjJiwDWbrTt-190" vertex="1">
          <mxGeometry width="5630" height="280" as="geometry" />
        </mxCell>
        <mxCell id="ZmzfmCcFbRjJiwDWbrTt-192" value="Plateau technique" style="shape=umlActor;verticalLabelPosition=bottom;verticalAlign=top;html=1;outlineConnect=0;" parent="ZmzfmCcFbRjJiwDWbrTt-190" vertex="1">
          <mxGeometry x="68.65853658536585" y="110" width="34.329268292682926" height="60" as="geometry" />
        </mxCell>
        <mxCell id="ZmzfmCcFbRjJiwDWbrTt-193" value="" style="group" parent="ZmzfmCcFbRjJiwDWbrTt-177" vertex="1" connectable="0">
          <mxGeometry y="280" width="5630" height="280" as="geometry" />
        </mxCell>
        <mxCell id="ZmzfmCcFbRjJiwDWbrTt-194" value="" style="whiteSpace=wrap;html=1;shadow=0;strokeColor=none;fillColor=#dae8fc;" parent="ZmzfmCcFbRjJiwDWbrTt-193" vertex="1">
          <mxGeometry width="5630" height="280" as="geometry" />
        </mxCell>
        <mxCell id="ZmzfmCcFbRjJiwDWbrTt-195" value="Chef installation" style="shape=umlActor;verticalLabelPosition=bottom;verticalAlign=top;html=1;outlineConnect=0;strokeColor=default;" parent="ZmzfmCcFbRjJiwDWbrTt-193" vertex="1">
          <mxGeometry x="68.65853658536585" y="110" width="34.329268292682926" height="60" as="geometry" />
        </mxCell>
        <mxCell id="ZmzfmCcFbRjJiwDWbrTt-196" value="" style="group" parent="ZmzfmCcFbRjJiwDWbrTt-177" vertex="1" connectable="0">
          <mxGeometry width="5630" height="280" as="geometry" />
        </mxCell>
        <mxCell id="ZmzfmCcFbRjJiwDWbrTt-197" value="" style="whiteSpace=wrap;html=1;shadow=0;strokeColor=none;fillColor=#f5f5f5;fontColor=#333333;" parent="ZmzfmCcFbRjJiwDWbrTt-196" vertex="1">
          <mxGeometry width="5630" height="280" as="geometry" />
        </mxCell>
        <mxCell id="ZmzfmCcFbRjJiwDWbrTt-198" value="Demandeur" style="shape=umlActor;verticalLabelPosition=bottom;verticalAlign=top;html=1;outlineConnect=0;" parent="ZmzfmCcFbRjJiwDWbrTt-196" vertex="1">
          <mxGeometry x="68.65853658536585" y="110" width="34.329268292682926" height="60" as="geometry" />
        </mxCell>
        <mxCell id="ZmzfmCcFbRjJiwDWbrTt-175" value="Diagramme" parent="WIyWlLk6GJQsqaUBKTNV-0" />
        <mxCell id="ZmzfmCcFbRjJiwDWbrTt-238" style="edgeStyle=orthogonalEdgeStyle;rounded=0;orthogonalLoop=1;jettySize=auto;html=1;exitX=0.5;exitY=1;exitDx=0;exitDy=0;exitPerimeter=0;entryX=0;entryY=0.5;entryDx=0;entryDy=0;entryPerimeter=0;strokeColor=default;" parent="ZmzfmCcFbRjJiwDWbrTt-175" source="ZmzfmCcFbRjJiwDWbrTt-234" edge="1">
          <mxGeometry relative="1" as="geometry">
            <Array as="points">
              <mxPoint x="2727.5" y="434" />
              <mxPoint x="2284.5" y="434" />
              <mxPoint x="2284.5" y="-41" />
            </Array>
            <mxPoint x="2365.5" y="-41" as="targetPoint" />
          </mxGeometry>
        </mxCell>
        <mxCell id="1lUhwp9rCd7I6Q8NkBMH-1" value="&lt;div&gt;&lt;br&gt;&lt;/div&gt;&lt;div&gt;Valider dossier&lt;/div&gt;" style="rounded=0;whiteSpace=wrap;html=1;fontFamily=Helvetica;fontSize=12;fontColor=#000000;align=center;fontStyle=1" vertex="1" parent="ZmzfmCcFbRjJiwDWbrTt-175">
          <mxGeometry x="773" y="-598" width="130" height="60" as="geometry" />
        </mxCell>
        <mxCell id="1lUhwp9rCd7I6Q8NkBMH-2" value="Demande" style="rounded=0;whiteSpace=wrap;html=1;fillColor=#0050ef;fontColor=#ffffff;strokeColor=none;fontSize=8;" vertex="1" parent="ZmzfmCcFbRjJiwDWbrTt-175">
          <mxGeometry x="773" y="-598" width="80" height="20" as="geometry" />
        </mxCell>
        <mxCell id="1lUhwp9rCd7I6Q8NkBMH-5" style="edgeStyle=orthogonalEdgeStyle;rounded=0;orthogonalLoop=1;jettySize=auto;html=1;exitX=0;exitY=0.5;exitDx=0;exitDy=0;exitPerimeter=0;entryX=0.5;entryY=1;entryDx=0;entryDy=0;" edge="1" parent="ZmzfmCcFbRjJiwDWbrTt-175" source="1lUhwp9rCd7I6Q8NkBMH-3" target="8jjc2kqJS15EgWJWvcIl-387">
          <mxGeometry relative="1" as="geometry" />
        </mxCell>
        <mxCell id="1lUhwp9rCd7I6Q8NkBMH-6" value="Dossier incomplet" style="edgeLabel;html=1;align=center;verticalAlign=middle;resizable=0;points=[];" vertex="1" connectable="0" parent="1lUhwp9rCd7I6Q8NkBMH-5">
          <mxGeometry x="-0.8682" y="3" relative="1" as="geometry">
            <mxPoint as="offset" />
          </mxGeometry>
        </mxCell>
        <mxCell id="1lUhwp9rCd7I6Q8NkBMH-9" style="edgeStyle=orthogonalEdgeStyle;rounded=0;orthogonalLoop=1;jettySize=auto;html=1;exitX=1;exitY=0.5;exitDx=0;exitDy=0;exitPerimeter=0;entryX=0;entryY=0.5;entryDx=0;entryDy=0;strokeWidth=3;" edge="1" parent="ZmzfmCcFbRjJiwDWbrTt-175" source="1lUhwp9rCd7I6Q8NkBMH-3" target="1lUhwp9rCd7I6Q8NkBMH-7">
          <mxGeometry relative="1" as="geometry" />
        </mxCell>
        <mxCell id="1lUhwp9rCd7I6Q8NkBMH-10" value="Dossier complet" style="edgeLabel;html=1;align=center;verticalAlign=middle;resizable=0;points=[];" vertex="1" connectable="0" parent="1lUhwp9rCd7I6Q8NkBMH-9">
          <mxGeometry x="-0.1858" y="-6" relative="1" as="geometry">
            <mxPoint x="-13" y="-6" as="offset" />
          </mxGeometry>
        </mxCell>
        <mxCell id="1lUhwp9rCd7I6Q8NkBMH-3" value="" style="points=[[0.25,0.25,0],[0.5,0,0],[0.75,0.25,0],[1,0.5,0],[0.75,0.75,0],[0.5,1,0],[0.25,0.75,0],[0,0.5,0]];shape=mxgraph.bpmn.gateway2;html=1;verticalLabelPosition=bottom;labelBackgroundColor=#ffffff;verticalAlign=top;align=center;perimeter=rhombusPerimeter;outlineConnect=0;outline=none;symbol=none;gwType=exclusive;" vertex="1" parent="ZmzfmCcFbRjJiwDWbrTt-175">
          <mxGeometry x="813" y="-503" width="50" height="50" as="geometry" />
        </mxCell>
        <mxCell id="1lUhwp9rCd7I6Q8NkBMH-4" style="edgeStyle=orthogonalEdgeStyle;rounded=0;orthogonalLoop=1;jettySize=auto;html=1;exitX=0.5;exitY=1;exitDx=0;exitDy=0;entryX=0.5;entryY=0;entryDx=0;entryDy=0;entryPerimeter=0;strokeWidth=3;" edge="1" parent="ZmzfmCcFbRjJiwDWbrTt-175" source="1lUhwp9rCd7I6Q8NkBMH-1" target="1lUhwp9rCd7I6Q8NkBMH-3">
          <mxGeometry relative="1" as="geometry" />
        </mxCell>
        <mxCell id="1lUhwp9rCd7I6Q8NkBMH-7" value="&lt;div&gt;&lt;br&gt;&lt;/div&gt;&lt;div&gt;Approuver dossier&lt;/div&gt;" style="rounded=0;whiteSpace=wrap;html=1;fontFamily=Helvetica;fontSize=12;fontColor=#000000;align=center;fontStyle=1" vertex="1" parent="ZmzfmCcFbRjJiwDWbrTt-175">
          <mxGeometry x="1025" y="-508" width="130" height="60" as="geometry" />
        </mxCell>
        <mxCell id="1lUhwp9rCd7I6Q8NkBMH-8" value="Demande" style="rounded=0;whiteSpace=wrap;html=1;fillColor=#0050ef;fontColor=#ffffff;strokeColor=none;fontSize=8;" vertex="1" parent="ZmzfmCcFbRjJiwDWbrTt-175">
          <mxGeometry x="1025" y="-508" width="80" height="20" as="geometry" />
        </mxCell>
        <mxCell id="1lUhwp9rCd7I6Q8NkBMH-12" value="Le formulaire est verrouillé par le demandeur après signature" style="text;html=1;align=left;verticalAlign=middle;whiteSpace=wrap;rounded=0;fontSize=10;strokeColor=default;dashed=1;dashPattern=1 1;glass=0;perimeterSpacing=0;labelPadding=0;spacing=8;" vertex="1" parent="ZmzfmCcFbRjJiwDWbrTt-175">
          <mxGeometry x="630" y="-1340" width="132" height="71" as="geometry" />
        </mxCell>
        <mxCell id="1lUhwp9rCd7I6Q8NkBMH-13" style="edgeStyle=orthogonalEdgeStyle;rounded=0;orthogonalLoop=1;jettySize=auto;html=1;exitX=0.5;exitY=1;exitDx=0;exitDy=0;entryX=0.5;entryY=0;entryDx=0;entryDy=0;dashed=1;endArrow=none;startFill=0;" edge="1" parent="ZmzfmCcFbRjJiwDWbrTt-175" source="1lUhwp9rCd7I6Q8NkBMH-12" target="3V38OUaqerDAB0xKx_UT-23">
          <mxGeometry relative="1" as="geometry">
            <mxPoint x="538" y="-1195" as="sourcePoint" />
            <mxPoint x="538" y="-1086" as="targetPoint" />
          </mxGeometry>
        </mxCell>
        <mxCell id="1lUhwp9rCd7I6Q8NkBMH-18" style="edgeStyle=orthogonalEdgeStyle;rounded=0;orthogonalLoop=1;jettySize=auto;html=1;exitX=0.5;exitY=0;exitDx=0;exitDy=0;entryX=0.75;entryY=0;entryDx=0;entryDy=0;" edge="1" parent="ZmzfmCcFbRjJiwDWbrTt-175" source="1lUhwp9rCd7I6Q8NkBMH-16" target="8jjc2kqJS15EgWJWvcIl-387">
          <mxGeometry relative="1" as="geometry">
            <Array as="points">
              <mxPoint x="1024" y="-1213" />
              <mxPoint x="497" y="-1213" />
            </Array>
          </mxGeometry>
        </mxCell>
        <mxCell id="1lUhwp9rCd7I6Q8NkBMH-16" value="&lt;div&gt;&lt;br&gt;&lt;/div&gt;&lt;div&gt;Annuler et reprendre&lt;/div&gt;" style="rounded=0;whiteSpace=wrap;html=1;fontFamily=Helvetica;fontSize=12;fontColor=#000000;align=center;fontStyle=1" vertex="1" parent="ZmzfmCcFbRjJiwDWbrTt-175">
          <mxGeometry x="977" y="-1161" width="130" height="60" as="geometry" />
        </mxCell>
        <mxCell id="1lUhwp9rCd7I6Q8NkBMH-17" value="Demande" style="rounded=0;whiteSpace=wrap;html=1;fillColor=#0050ef;fontColor=#ffffff;strokeColor=none;fontSize=8;" vertex="1" parent="ZmzfmCcFbRjJiwDWbrTt-175">
          <mxGeometry x="977" y="-1161" width="80" height="20" as="geometry" />
        </mxCell>
        <mxCell id="1lUhwp9rCd7I6Q8NkBMH-21" style="edgeStyle=orthogonalEdgeStyle;rounded=0;orthogonalLoop=1;jettySize=auto;html=1;exitX=1;exitY=0.5;exitDx=0;exitDy=0;exitPerimeter=0;entryX=0;entryY=0.5;entryDx=0;entryDy=0;" edge="1" parent="ZmzfmCcFbRjJiwDWbrTt-175" source="1lUhwp9rCd7I6Q8NkBMH-19" target="1lUhwp9rCd7I6Q8NkBMH-16">
          <mxGeometry relative="1" as="geometry" />
        </mxCell>
        <mxCell id="1lUhwp9rCd7I6Q8NkBMH-22" value="&lt;div&gt;Annuler&lt;/div&gt;&lt;div&gt;et reprendre ?&lt;/div&gt;" style="edgeLabel;html=1;align=center;verticalAlign=middle;resizable=0;points=[];" vertex="1" connectable="0" parent="1lUhwp9rCd7I6Q8NkBMH-21">
          <mxGeometry x="-0.4148" y="2" relative="1" as="geometry">
            <mxPoint x="14" y="-1" as="offset" />
          </mxGeometry>
        </mxCell>
        <mxCell id="1lUhwp9rCd7I6Q8NkBMH-23" value="Annulation possible jusqu&#39;à approbation du dossier" style="shape=hexagon;perimeter=hexagonPerimeter2;whiteSpace=wrap;html=1;fixedSize=1;spacingLeft=16;spacingRight=16;fillColor=#d80073;fontColor=#ffffff;strokeColor=#A50040;" vertex="1" parent="ZmzfmCcFbRjJiwDWbrTt-175">
          <mxGeometry x="1049" y="-955" width="228" height="48" as="geometry" />
        </mxCell>
        <mxCell id="WIyWlLk6GJQsqaUBKTNV-1" parent="WIyWlLk6GJQsqaUBKTNV-0" />
        <mxCell id="8jjc2kqJS15EgWJWvcIl-383" value="" style="edgeStyle=orthogonalEdgeStyle;rounded=0;orthogonalLoop=1;jettySize=auto;html=1;exitX=1;exitY=0.5;exitDx=0;exitDy=0;strokeWidth=3;" parent="WIyWlLk6GJQsqaUBKTNV-1" source="8jjc2kqJS15EgWJWvcIl-384" target="8jjc2kqJS15EgWJWvcIl-386" edge="1">
          <mxGeometry relative="1" as="geometry">
            <Array as="points" />
          </mxGeometry>
        </mxCell>
        <mxCell id="8jjc2kqJS15EgWJWvcIl-384" value="" style="ellipse;whiteSpace=wrap;html=1;" parent="WIyWlLk6GJQsqaUBKTNV-1" vertex="1">
          <mxGeometry x="-53" y="-1150" width="40" height="40" as="geometry" />
        </mxCell>
        <mxCell id="8jjc2kqJS15EgWJWvcIl-385" value="" style="edgeStyle=orthogonalEdgeStyle;rounded=0;orthogonalLoop=1;jettySize=auto;html=1;strokeWidth=3;" parent="WIyWlLk6GJQsqaUBKTNV-1" source="ZmzfmCcFbRjJiwDWbrTt-199" target="8jjc2kqJS15EgWJWvcIl-387" edge="1">
          <mxGeometry relative="1" as="geometry" />
        </mxCell>
        <mxCell id="ZmzfmCcFbRjJiwDWbrTt-28" style="edgeStyle=orthogonalEdgeStyle;rounded=0;orthogonalLoop=1;jettySize=auto;html=1;exitX=0.5;exitY=1;exitDx=0;exitDy=0;entryX=0;entryY=0.5;entryDx=0;entryDy=0;entryPerimeter=0;exitPerimeter=0;" parent="WIyWlLk6GJQsqaUBKTNV-1" source="ZmzfmCcFbRjJiwDWbrTt-199" target="ZmzfmCcFbRjJiwDWbrTt-27" edge="1">
          <mxGeometry relative="1" as="geometry" />
        </mxCell>
        <mxCell id="ZmzfmCcFbRjJiwDWbrTt-30" value="Annuler" style="edgeLabel;html=1;align=center;verticalAlign=middle;resizable=0;points=[];" parent="ZmzfmCcFbRjJiwDWbrTt-28" vertex="1" connectable="0">
          <mxGeometry x="-0.4474" relative="1" as="geometry">
            <mxPoint y="-26" as="offset" />
          </mxGeometry>
        </mxCell>
        <mxCell id="8jjc2kqJS15EgWJWvcIl-386" value="&lt;div&gt;&lt;br&gt;&lt;/div&gt;&lt;div&gt;Créer demande&lt;/div&gt;" style="rounded=0;whiteSpace=wrap;html=1;fontFamily=Helvetica;fontSize=12;fontColor=#000000;align=center;fontStyle=1;verticalAlign=middle;" parent="WIyWlLk6GJQsqaUBKTNV-1" vertex="1">
          <mxGeometry x="110" y="-1160" width="130" height="60" as="geometry" />
        </mxCell>
        <mxCell id="3V38OUaqerDAB0xKx_UT-15" style="edgeStyle=orthogonalEdgeStyle;rounded=0;orthogonalLoop=1;jettySize=auto;html=1;exitX=1;exitY=0.5;exitDx=0;exitDy=0;entryX=0.023;entryY=0.517;entryDx=0;entryDy=0;strokeWidth=3;entryPerimeter=0;" parent="WIyWlLk6GJQsqaUBKTNV-1" source="8jjc2kqJS15EgWJWvcIl-387" target="3V38OUaqerDAB0xKx_UT-23" edge="1">
          <mxGeometry relative="1" as="geometry">
            <mxPoint x="650" y="-1130" as="targetPoint" />
          </mxGeometry>
        </mxCell>
        <mxCell id="8jjc2kqJS15EgWJWvcIl-387" value="&lt;div&gt;&lt;br&gt;&lt;/div&gt;&lt;div&gt;Réaliser analyse préliminaire&lt;/div&gt;" style="rounded=0;whiteSpace=wrap;html=1;fontFamily=Helvetica;fontSize=12;fontColor=#000000;align=center;fontStyle=1" parent="WIyWlLk6GJQsqaUBKTNV-1" vertex="1">
          <mxGeometry x="399" y="-1160" width="130" height="60" as="geometry" />
        </mxCell>
        <mxCell id="8jjc2kqJS15EgWJWvcIl-469" value="Brouillon" style="rounded=1;whiteSpace=wrap;html=1;fillColor=#fa6800;fontColor=#000000;strokeColor=#C73500;" parent="WIyWlLk6GJQsqaUBKTNV-1" vertex="1">
          <mxGeometry x="10" y="-1142" width="64" height="24" as="geometry" />
        </mxCell>
        <mxCell id="8jjc2kqJS15EgWJWvcIl-472" style="edgeStyle=orthogonalEdgeStyle;rounded=0;orthogonalLoop=1;jettySize=auto;html=1;exitX=0.5;exitY=1;exitDx=0;exitDy=0;entryX=0.5;entryY=0;entryDx=0;entryDy=0;dashed=1;endArrow=none;startFill=0;" parent="WIyWlLk6GJQsqaUBKTNV-1" source="8jjc2kqJS15EgWJWvcIl-471" target="8jjc2kqJS15EgWJWvcIl-469" edge="1">
          <mxGeometry relative="1" as="geometry" />
        </mxCell>
        <mxCell id="8jjc2kqJS15EgWJWvcIl-471" value="&lt;div align=&quot;left&quot;&gt;Visible uniquement par son créateur&lt;/div&gt;" style="text;html=1;align=left;verticalAlign=middle;whiteSpace=wrap;rounded=0;fontSize=10;strokeColor=default;dashed=1;dashPattern=1 1;glass=0;perimeterSpacing=0;labelPadding=0;spacing=8;" parent="WIyWlLk6GJQsqaUBKTNV-1" vertex="1">
          <mxGeometry x="-13" y="-1310" width="110" height="40" as="geometry" />
        </mxCell>
        <mxCell id="8jjc2kqJS15EgWJWvcIl-474" value="&lt;div&gt;Numéro de dossier attribué&lt;/div&gt;&lt;div&gt;Visible par tout le monde&lt;/div&gt;&lt;div&gt;Objectif : pré-analyser et classifier les risques provoqués par la modification. Affiner le contexte de la demande.&lt;/div&gt;" style="text;html=1;align=left;verticalAlign=middle;whiteSpace=wrap;rounded=0;fontSize=10;strokeColor=default;dashed=1;dashPattern=1 1;glass=0;perimeterSpacing=0;labelPadding=0;spacing=8;" parent="WIyWlLk6GJQsqaUBKTNV-1" vertex="1">
          <mxGeometry x="342" y="-1340" width="244" height="71" as="geometry" />
        </mxCell>
        <mxCell id="3V38OUaqerDAB0xKx_UT-0" value="Demande" style="rounded=0;whiteSpace=wrap;html=1;fillColor=#0050ef;fontColor=#ffffff;strokeColor=none;fontSize=8;" parent="WIyWlLk6GJQsqaUBKTNV-1" vertex="1">
          <mxGeometry x="110" y="-1160" width="80" height="20" as="geometry" />
        </mxCell>
        <mxCell id="3V38OUaqerDAB0xKx_UT-1" style="edgeStyle=orthogonalEdgeStyle;rounded=0;orthogonalLoop=1;jettySize=auto;html=1;exitX=0.5;exitY=1;exitDx=0;exitDy=0;entryX=0.5;entryY=0;entryDx=0;entryDy=0;dashed=1;endArrow=none;startFill=0;" parent="WIyWlLk6GJQsqaUBKTNV-1" source="3V38OUaqerDAB0xKx_UT-2" target="8jjc2kqJS15EgWJWvcIl-386" edge="1">
          <mxGeometry relative="1" as="geometry">
            <mxPoint x="175" y="-1100" as="targetPoint" />
          </mxGeometry>
        </mxCell>
        <mxCell id="3V38OUaqerDAB0xKx_UT-2" value="&lt;div&gt;Objectif : Description de la modification, choix équipement(s) concerné, dates prévisionnelles de travaux&lt;/div&gt;" style="text;html=1;align=left;verticalAlign=middle;whiteSpace=wrap;rounded=0;fontSize=10;strokeColor=default;dashed=1;dashPattern=1 1;glass=0;perimeterSpacing=0;labelPadding=0;spacing=8;" parent="WIyWlLk6GJQsqaUBKTNV-1" vertex="1">
          <mxGeometry x="50" y="-1470" width="250" height="52" as="geometry" />
        </mxCell>
        <mxCell id="3V38OUaqerDAB0xKx_UT-3" value="Demande" style="rounded=0;whiteSpace=wrap;html=1;fillColor=#0050ef;fontColor=#ffffff;strokeColor=none;fontSize=8;" parent="WIyWlLk6GJQsqaUBKTNV-1" vertex="1">
          <mxGeometry x="399" y="-1160" width="80" height="20" as="geometry" />
        </mxCell>
        <mxCell id="3V38OUaqerDAB0xKx_UT-4" value="Brouillon" style="rounded=1;whiteSpace=wrap;html=1;fillColor=#fa6800;fontColor=#000000;strokeColor=#C73500;" parent="WIyWlLk6GJQsqaUBKTNV-1" vertex="1">
          <mxGeometry x="-196" y="-2018" width="64" height="24" as="geometry" />
        </mxCell>
        <mxCell id="3V38OUaqerDAB0xKx_UT-6" value="Legende" style="text;html=1;whiteSpace=wrap;overflow=hidden;rounded=0;fontStyle=1;fontSize=14;" parent="WIyWlLk6GJQsqaUBKTNV-1" vertex="1">
          <mxGeometry x="-196" y="-2058" width="60" height="26" as="geometry" />
        </mxCell>
        <mxCell id="3V38OUaqerDAB0xKx_UT-7" value="Statut de la demande" style="text;html=1;align=left;verticalAlign=middle;whiteSpace=wrap;rounded=0;" parent="WIyWlLk6GJQsqaUBKTNV-1" vertex="1">
          <mxGeometry x="-116" y="-2021" width="120" height="30" as="geometry" />
        </mxCell>
        <mxCell id="3V38OUaqerDAB0xKx_UT-8" value="&lt;div&gt;Créer demande&lt;/div&gt;" style="rounded=0;whiteSpace=wrap;html=1;fontFamily=Helvetica;fontSize=12;fontColor=#000000;align=center;fontStyle=1;verticalAlign=middle;" parent="WIyWlLk6GJQsqaUBKTNV-1" vertex="1">
          <mxGeometry x="-196" y="-1938" width="70" height="40" as="geometry" />
        </mxCell>
        <mxCell id="3V38OUaqerDAB0xKx_UT-9" value="Activité métier (US)&amp;nbsp;obligatoire" style="text;html=1;align=left;verticalAlign=middle;whiteSpace=wrap;rounded=0;" parent="WIyWlLk6GJQsqaUBKTNV-1" vertex="1">
          <mxGeometry x="-116" y="-1933" width="210" height="30" as="geometry" />
        </mxCell>
        <mxCell id="3V38OUaqerDAB0xKx_UT-10" value="Demande" style="rounded=0;whiteSpace=wrap;html=1;fillColor=#0050ef;fontColor=#ffffff;strokeColor=none;fontSize=8;" parent="WIyWlLk6GJQsqaUBKTNV-1" vertex="1">
          <mxGeometry x="-196" y="-1819" width="70" height="20" as="geometry" />
        </mxCell>
        <mxCell id="3V38OUaqerDAB0xKx_UT-12" value="Ecran (étape de la demande)" style="text;html=1;align=left;verticalAlign=middle;whiteSpace=wrap;rounded=0;" parent="WIyWlLk6GJQsqaUBKTNV-1" vertex="1">
          <mxGeometry x="-116" y="-1824" width="180" height="30" as="geometry" />
        </mxCell>
        <mxCell id="3V38OUaqerDAB0xKx_UT-19" value="&lt;div&gt;&lt;br&gt;&lt;/div&gt;" style="shape=hexagon;perimeter=hexagonPerimeter2;whiteSpace=wrap;html=1;fixedSize=1;spacingLeft=16;spacingRight=16;fillColor=#d80073;fontColor=#ffffff;strokeColor=#A50040;" parent="WIyWlLk6GJQsqaUBKTNV-1" vertex="1">
          <mxGeometry x="-196" y="-1779" width="70" height="20" as="geometry" />
        </mxCell>
        <mxCell id="3V38OUaqerDAB0xKx_UT-20" value="Effet de bord" style="text;html=1;align=left;verticalAlign=middle;whiteSpace=wrap;rounded=0;" parent="WIyWlLk6GJQsqaUBKTNV-1" vertex="1">
          <mxGeometry x="-116" y="-1784" width="180" height="30" as="geometry" />
        </mxCell>
        <mxCell id="3V38OUaqerDAB0xKx_UT-23" value="&lt;div&gt;&lt;br&gt;&lt;/div&gt;&lt;div&gt;Signer demande&lt;/div&gt;" style="rounded=0;whiteSpace=wrap;html=1;fontFamily=Helvetica;fontSize=12;fontColor=#000000;align=center;fontStyle=1" parent="WIyWlLk6GJQsqaUBKTNV-1" vertex="1">
          <mxGeometry x="631" y="-1161" width="130" height="60" as="geometry" />
        </mxCell>
        <mxCell id="3V38OUaqerDAB0xKx_UT-24" value="Demande" style="rounded=0;whiteSpace=wrap;html=1;fillColor=#0050ef;fontColor=#ffffff;strokeColor=none;fontSize=8;" parent="WIyWlLk6GJQsqaUBKTNV-1" vertex="1">
          <mxGeometry x="631" y="-1161" width="80" height="20" as="geometry" />
        </mxCell>
        <mxCell id="ZmzfmCcFbRjJiwDWbrTt-18" value="&lt;div&gt;Créer demande&lt;/div&gt;" style="rounded=0;whiteSpace=wrap;html=1;fontFamily=Helvetica;fontSize=12;fontColor=#000000;align=center;fontStyle=1;verticalAlign=middle;dashed=1;dashPattern=1 2;" parent="WIyWlLk6GJQsqaUBKTNV-1" vertex="1">
          <mxGeometry x="-196" y="-1878" width="70" height="40" as="geometry" />
        </mxCell>
        <mxCell id="ZmzfmCcFbRjJiwDWbrTt-19" value="Activité métier (US) facultative" style="text;html=1;align=left;verticalAlign=middle;whiteSpace=wrap;rounded=0;" parent="WIyWlLk6GJQsqaUBKTNV-1" vertex="1">
          <mxGeometry x="-116" y="-1873" width="210" height="30" as="geometry" />
        </mxCell>
        <mxCell id="ZmzfmCcFbRjJiwDWbrTt-27" value="Demande supprimée" style="points=[[0.145,0.145,0],[0.5,0,0],[0.855,0.145,0],[1,0.5,0],[0.855,0.855,0],[0.5,1,0],[0.145,0.855,0],[0,0.5,0]];shape=mxgraph.bpmn.event;html=1;verticalLabelPosition=bottom;labelBackgroundColor=#ffffff;verticalAlign=top;align=center;perimeter=ellipsePerimeter;outlineConnect=0;aspect=fixed;outline=end;symbol=terminate2;" parent="WIyWlLk6GJQsqaUBKTNV-1" vertex="1">
          <mxGeometry x="338" y="-1030" width="50" height="50" as="geometry" />
        </mxCell>
        <mxCell id="ZmzfmCcFbRjJiwDWbrTt-31" value="&lt;div&gt;Annulée&lt;/div&gt;" style="rounded=1;whiteSpace=wrap;html=1;fillColor=#f8cecc;strokeColor=#b85450;" parent="WIyWlLk6GJQsqaUBKTNV-1" vertex="1">
          <mxGeometry x="-196" y="-1978" width="64" height="24" as="geometry" />
        </mxCell>
        <mxCell id="ZmzfmCcFbRjJiwDWbrTt-32" value="Statut terminal de la demande" style="text;html=1;align=left;verticalAlign=middle;whiteSpace=wrap;rounded=0;" parent="WIyWlLk6GJQsqaUBKTNV-1" vertex="1">
          <mxGeometry x="-116" y="-1981" width="170" height="30" as="geometry" />
        </mxCell>
        <mxCell id="ZmzfmCcFbRjJiwDWbrTt-200" value="" style="edgeStyle=orthogonalEdgeStyle;rounded=0;orthogonalLoop=1;jettySize=auto;html=1;strokeWidth=3;" parent="WIyWlLk6GJQsqaUBKTNV-1" source="8jjc2kqJS15EgWJWvcIl-386" target="ZmzfmCcFbRjJiwDWbrTt-199" edge="1">
          <mxGeometry relative="1" as="geometry">
            <mxPoint x="240" y="-1130" as="sourcePoint" />
            <mxPoint x="450" y="-1130" as="targetPoint" />
          </mxGeometry>
        </mxCell>
        <mxCell id="ZmzfmCcFbRjJiwDWbrTt-201" value="Valider" style="edgeLabel;html=1;align=center;verticalAlign=middle;resizable=0;points=[];" parent="ZmzfmCcFbRjJiwDWbrTt-200" vertex="1" connectable="0">
          <mxGeometry x="-0.3887" relative="1" as="geometry">
            <mxPoint x="81" as="offset" />
          </mxGeometry>
        </mxCell>
        <mxCell id="ZmzfmCcFbRjJiwDWbrTt-199" value="" style="points=[[0.25,0.25,0],[0.5,0,0],[0.75,0.25,0],[1,0.5,0],[0.75,0.75,0],[0.5,1,0],[0.25,0.75,0],[0,0.5,0]];shape=mxgraph.bpmn.gateway2;html=1;verticalLabelPosition=bottom;labelBackgroundColor=#ffffff;verticalAlign=top;align=center;perimeter=rhombusPerimeter;outlineConnect=0;outline=none;symbol=none;gwType=exclusive;" parent="WIyWlLk6GJQsqaUBKTNV-1" vertex="1">
          <mxGeometry x="265" y="-1155" width="50" height="50" as="geometry" />
        </mxCell>
        <mxCell id="ZmzfmCcFbRjJiwDWbrTt-203" style="edgeStyle=orthogonalEdgeStyle;rounded=0;orthogonalLoop=1;jettySize=auto;html=1;exitX=0.5;exitY=1;exitDx=0;exitDy=0;entryX=0.5;entryY=0;entryDx=0;entryDy=0;strokeWidth=3;exitPerimeter=0;" parent="WIyWlLk6GJQsqaUBKTNV-1" source="1lUhwp9rCd7I6Q8NkBMH-19" target="1lUhwp9rCd7I6Q8NkBMH-1" edge="1">
          <mxGeometry relative="1" as="geometry">
            <mxPoint x="989" y="-515" as="targetPoint" />
          </mxGeometry>
        </mxCell>
        <mxCell id="ZmzfmCcFbRjJiwDWbrTt-281" value="" style="edgeStyle=orthogonalEdgeStyle;rounded=0;orthogonalLoop=1;jettySize=auto;html=1;exitX=1;exitY=0.5;exitDx=0;exitDy=0;strokeWidth=3;" parent="WIyWlLk6GJQsqaUBKTNV-1" edge="1">
          <mxGeometry relative="1" as="geometry">
            <Array as="points">
              <mxPoint x="-196" y="-1729" />
            </Array>
            <mxPoint x="-196" y="-1728" as="sourcePoint" />
            <mxPoint x="-129" y="-1729" as="targetPoint" />
          </mxGeometry>
        </mxCell>
        <mxCell id="ZmzfmCcFbRjJiwDWbrTt-282" value="Parcours nominal/principal" style="text;html=1;align=left;verticalAlign=middle;whiteSpace=wrap;rounded=0;" parent="WIyWlLk6GJQsqaUBKTNV-1" vertex="1">
          <mxGeometry x="-116" y="-1744" width="180" height="30" as="geometry" />
        </mxCell>
        <mxCell id="ZmzfmCcFbRjJiwDWbrTt-283" value="" style="ellipse;whiteSpace=wrap;html=1;" parent="WIyWlLk6GJQsqaUBKTNV-1" vertex="1">
          <mxGeometry x="178" y="-2026" width="40" height="40" as="geometry" />
        </mxCell>
        <mxCell id="ZmzfmCcFbRjJiwDWbrTt-284" value="Début de parcours" style="text;html=1;align=left;verticalAlign=middle;whiteSpace=wrap;rounded=0;" parent="WIyWlLk6GJQsqaUBKTNV-1" vertex="1">
          <mxGeometry x="238" y="-2024" width="120" height="30" as="geometry" />
        </mxCell>
        <mxCell id="ZmzfmCcFbRjJiwDWbrTt-285" value="" style="points=[[0.145,0.145,0],[0.5,0,0],[0.855,0.145,0],[1,0.5,0],[0.855,0.855,0],[0.5,1,0],[0.145,0.855,0],[0,0.5,0]];shape=mxgraph.bpmn.event;html=1;verticalLabelPosition=bottom;labelBackgroundColor=#ffffff;verticalAlign=top;align=center;perimeter=ellipsePerimeter;outlineConnect=0;aspect=fixed;outline=end;symbol=terminate2;" parent="WIyWlLk6GJQsqaUBKTNV-1" vertex="1">
          <mxGeometry x="173" y="-1961" width="50" height="50" as="geometry" />
        </mxCell>
        <mxCell id="ZmzfmCcFbRjJiwDWbrTt-286" value="Fin de parcours" style="text;html=1;align=left;verticalAlign=middle;whiteSpace=wrap;rounded=0;" parent="WIyWlLk6GJQsqaUBKTNV-1" vertex="1">
          <mxGeometry x="238" y="-1951" width="120" height="30" as="geometry" />
        </mxCell>
        <mxCell id="ZmzfmCcFbRjJiwDWbrTt-287" value="" style="points=[[0.25,0.25,0],[0.5,0,0],[0.75,0.25,0],[1,0.5,0],[0.75,0.75,0],[0.5,1,0],[0.25,0.75,0],[0,0.5,0]];shape=mxgraph.bpmn.gateway2;html=1;verticalLabelPosition=bottom;labelBackgroundColor=#ffffff;verticalAlign=top;align=center;perimeter=rhombusPerimeter;outlineConnect=0;outline=none;symbol=none;gwType=exclusive;" parent="WIyWlLk6GJQsqaUBKTNV-1" vertex="1">
          <mxGeometry x="171" y="-1883" width="50" height="50" as="geometry" />
        </mxCell>
        <mxCell id="ZmzfmCcFbRjJiwDWbrTt-288" value="Nœud conditionnel (l&#39;une OU l&#39;autre)" style="text;html=1;align=left;verticalAlign=middle;whiteSpace=wrap;rounded=0;" parent="WIyWlLk6GJQsqaUBKTNV-1" vertex="1">
          <mxGeometry x="234" y="-1873" width="221" height="30" as="geometry" />
        </mxCell>
        <mxCell id="ZmzfmCcFbRjJiwDWbrTt-289" value="" style="points=[[0.25,0.25,0],[0.5,0,0],[0.75,0.25,0],[1,0.5,0],[0.75,0.75,0],[0.5,1,0],[0.25,0.75,0],[0,0.5,0]];shape=mxgraph.bpmn.gateway2;html=1;verticalLabelPosition=bottom;labelBackgroundColor=#ffffff;verticalAlign=top;align=center;perimeter=rhombusPerimeter;outlineConnect=0;outline=none;symbol=none;gwType=parallel;" parent="WIyWlLk6GJQsqaUBKTNV-1" vertex="1">
          <mxGeometry x="173" y="-1824" width="50" height="50" as="geometry" />
        </mxCell>
        <mxCell id="ZmzfmCcFbRjJiwDWbrTt-290" value="Nœud parallèle (l&#39;un ET l&#39;autre)" style="text;html=1;align=left;verticalAlign=middle;whiteSpace=wrap;rounded=0;" parent="WIyWlLk6GJQsqaUBKTNV-1" vertex="1">
          <mxGeometry x="234" y="-1814" width="212" height="30" as="geometry" />
        </mxCell>
        <mxCell id="ZmzfmCcFbRjJiwDWbrTt-291" value="" style="points=[[0.25,0.25,0],[0.5,0,0],[0.75,0.25,0],[1,0.5,0],[0.75,0.75,0],[0.5,1,0],[0.25,0.75,0],[0,0.5,0]];shape=mxgraph.bpmn.gateway2;html=1;verticalLabelPosition=bottom;labelBackgroundColor=#ffffff;verticalAlign=top;align=center;perimeter=rhombusPerimeter;outlineConnect=0;outline=none;symbol=none;gwType=complex;strokeColor=default;" parent="WIyWlLk6GJQsqaUBKTNV-1" vertex="1">
          <mxGeometry x="173" y="-1756" width="50" height="50" as="geometry" />
        </mxCell>
        <mxCell id="ZmzfmCcFbRjJiwDWbrTt-292" value="Nœud&amp;nbsp;complexe (cf description)&amp;nbsp;" style="text;html=1;align=left;verticalAlign=middle;whiteSpace=wrap;rounded=0;" parent="WIyWlLk6GJQsqaUBKTNV-1" vertex="1">
          <mxGeometry x="232" y="-1746" width="212" height="30" as="geometry" />
        </mxCell>
        <mxCell id="1lUhwp9rCd7I6Q8NkBMH-0" style="edgeStyle=orthogonalEdgeStyle;rounded=0;orthogonalLoop=1;jettySize=auto;html=1;exitX=0.5;exitY=1;exitDx=0;exitDy=0;entryX=0.5;entryY=0;entryDx=0;entryDy=0;dashed=1;endArrow=none;startFill=0;" edge="1" parent="WIyWlLk6GJQsqaUBKTNV-1" source="8jjc2kqJS15EgWJWvcIl-474" target="8jjc2kqJS15EgWJWvcIl-387">
          <mxGeometry relative="1" as="geometry">
            <mxPoint x="160" y="-1120" as="sourcePoint" />
            <mxPoint x="400" y="-1142" as="targetPoint" />
          </mxGeometry>
        </mxCell>
        <mxCell id="1lUhwp9rCd7I6Q8NkBMH-20" value="" style="edgeStyle=orthogonalEdgeStyle;rounded=0;orthogonalLoop=1;jettySize=auto;html=1;exitX=1;exitY=0.5;exitDx=0;exitDy=0;entryX=0;entryY=0.5;entryDx=0;entryDy=0;strokeWidth=3;entryPerimeter=0;" edge="1" parent="WIyWlLk6GJQsqaUBKTNV-1" source="3V38OUaqerDAB0xKx_UT-23" target="1lUhwp9rCd7I6Q8NkBMH-19">
          <mxGeometry relative="1" as="geometry">
            <mxPoint x="761" y="-1131" as="sourcePoint" />
            <mxPoint x="838" y="-598" as="targetPoint" />
            <Array as="points">
              <mxPoint x="791" y="-1131" />
              <mxPoint x="791" y="-1131" />
            </Array>
          </mxGeometry>
        </mxCell>
        <mxCell id="1lUhwp9rCd7I6Q8NkBMH-19" value="" style="points=[[0.25,0.25,0],[0.5,0,0],[0.75,0.25,0],[1,0.5,0],[0.75,0.75,0],[0.5,1,0],[0.25,0.75,0],[0,0.5,0]];shape=mxgraph.bpmn.gateway2;html=1;verticalLabelPosition=bottom;labelBackgroundColor=#ffffff;verticalAlign=top;align=center;perimeter=rhombusPerimeter;outlineConnect=0;outline=none;symbol=none;gwType=exclusive;" vertex="1" parent="WIyWlLk6GJQsqaUBKTNV-1">
          <mxGeometry x="812" y="-1156" width="50" height="50" as="geometry" />
        </mxCell>
      </root>
    </mxGraphModel>
  </diagram>
</mxfile>
